 http://www.imdb.com/title/tt2168910
 
http://en.wikipedia.org/wiki/Cocktail_(2012_film)


Format                                   : Matroska
Format version                           : Version 2
File size                                : 2.07 GiB
Duration                                 : 2h 19mn
Overall bit rate                         : 2 129 Kbps

Video
ID                                       : 1
Format                                   : AVC
Format/Info                              : Advanced Video Codec
Format profile                           : High@L4.1
Format settings, CABAC                   : Yes
Format settings, ReFrames                : 4 frames
Muxing mode                              : Header stripping
Codec ID                                 : V_MPEG4/ISO/AVC
Duration                                 : 2h 19mn
Bit rate                                 : 2 000 Kbps
Width                                    : 1 280 pixels
Height                                   : 544 pixels
Display aspect ratio                     : 2.35:1
Frame rate                               : 23.976 fps
Stream size                              : 1.90 GiB (92%)

Audio
ID                                       : 2
Format                                   : AC-3
Bit rate mode                            : Constant
Bit rate                                 : 128 Kbps
Channel(s)                               : 2 channels
Channel positions                        : Front: L R
Sampling rate                            : 48.0 KHz
Bit depth                                : 16 bits
Stream size                              : 127 MiB (6%)
 
http://www.freeimgsharing.com/images/32077546744279446590.png
 
http://www.freeimgsharing.com/images/87026719882470082390.png
 
http://www.freeimgsharing.com/images/28284720085447409371.png
 
http://www.freeimgsharing.com/images/36402772803937474295.png
 
http://www.freeimgsharing.com/images/14053290373456776769.png
 
http://www.freeimgsharing.com/images/94123735910508699647.png
 
http://www.freeimgsharing.com/images/32509240082588315683.png
 
http://www.freeimgsharing.com/images/08978386925768759958.png
 
http://www.freeimgsharing.com/images/76136051486325978917.png
 
http://www.freeimgsharing.com/images/06003152259862782193.png
 
http://www.freeimgsharing.com/images/83681566360345432832.png
 
http://www.freeimgsharing.com/images/92837023573696647384.png